PathFileType	4	(X/Y/Z)	D:\TRACE\v60_Jaco2_6-2-23\JustArmDRS_Motion1_4-platform.trc
DataRate	CameraRate	NumFrames	NumMarkers	Units	OrigDataRate	OrigDataStartFrame	OrigNumFrames
100.00	100.00	      72	5	mm	100.00	4258	      6812
Frame#	Time	Left_Front			Right_Front			Left_Aft			Right_Aft			Post			
		X1	Y1	Z1	X2	Y2	Z2	X3	Y3	Z3	X4	Y4	Z4	X5	Y5	Z5	

4258	42.570	-752.99243	22.38867	-635.72473	816.83130	24.10397	-641.29651	-661.17975	-1.86661	499.09985	781.20935	-2.73067	508.67404	33.30058	1328.20532	-931.50653	
4259	42.580	-752.65741	22.85990	-635.61176	817.10254	24.51183	-641.17767	-660.65332	-2.40845	499.27542	781.36682	-3.11622	508.76855	33.64303	1329.02002	-930.43329	
4260	42.590	-752.21240	23.41323	-635.34027	817.66028	24.90648	-641.06250	-660.34882	-2.68823	499.29254	781.85913	-3.35254	508.91565	33.95992	1329.50977	-929.35052	
4261	42.600	-752.17004	24.03684	-635.63519	818.01251	25.33905	-640.92188	-660.05280	-2.93038	499.29315	782.28595	-3.80721	509.01672	34.45356	1329.93738	-928.29559	
4262	42.610	-751.83270	24.33646	-635.41736	818.25385	25.76998	-640.81781	-659.80835	-3.19072	499.37378	782.40393	-4.11494	509.09497	34.61332	1330.71741	-927.89069	
4263	42.620	-751.63635	24.72403	-635.22656	818.50708	26.20539	-640.65765	-659.66333	-3.39346	499.43640	782.30969	-4.42569	508.93973	34.90799	1331.46912	-927.02032	
4264	42.630	-751.39429	25.09144	-635.11560	818.75244	26.54262	-640.54590	-659.45276	-3.65355	499.54199	782.51917	-4.70045	509.04477	35.21933	1331.82764	-926.07385	
4265	42.640	-751.09485	25.50049	-634.93390	818.90906	26.82937	-640.45026	-659.12970	-4.14579	499.73834	782.97058	-5.05765	509.05359	35.61371	1332.35608	-925.50085	
4266	42.650	-750.82153	25.73110	-634.81146	819.19470	27.22376	-640.32166	-658.91406	-4.49727	499.78998	783.32593	-5.41036	509.11792	35.34688	1333.25623	-925.01117	
4267	42.660	-750.69659	26.08195	-634.72809	819.24036	27.66335	-640.19318	-658.78088	-4.73816	499.84766	783.47418	-5.42196	509.64896	35.90889	1333.56323	-923.55365	
4268	42.670	-750.68335	26.42164	-634.63409	819.41254	28.09386	-640.08618	-658.63062	-4.97257	499.84573	783.41534	-5.65476	509.72662	36.05740	1334.23254	-922.86267	
4269	42.680	-750.48346	26.93173	-634.51813	819.49274	28.61242	-640.03137	-658.56238	-5.20370	499.92493	783.42773	-6.05977	509.83398	35.91911	1334.73694	-921.81122	
4270	42.690	-750.56860	27.40435	-634.28040	819.54431	28.95834	-640.03406	-658.56323	-5.34572	499.98285	783.46649	-6.44694	509.98727	36.18362	1335.29126	-920.82031	
4271	42.700	-750.56244	27.90178	-634.33691	819.45721	29.15167	-640.07257	-658.59015	-5.47909	500.05054	783.67780	-6.66802	509.96616	35.91852	1335.82581	-919.66718	
4272	42.710	-750.42621	28.35489	-634.32410	819.57019	29.49111	-639.88428	-658.53876	-5.78161	500.14969	783.78699	-6.85628	510.03372	35.64252	1336.41748	-918.89807	
4273	42.720	-750.34015	28.66030	-634.26929	819.46851	29.78496	-639.82629	-658.54059	-6.04936	500.25330	783.82220	-7.04601	510.08832	35.66698	1336.78857	-918.44354	
4274	42.730	-750.35107	28.82447	-634.14252	819.61023	30.23409	-639.66034	-658.46289	-6.36648	500.33231	783.65234	-7.30312	510.22647	36.12208	1337.30920	-917.22638	
4275	42.740	-750.37000	29.09408	-633.95520	819.67920	30.59188	-639.45197	-658.52820	-6.57059	500.36899	783.89880	-7.55474	510.20435	36.04253	1337.69702	-916.78229	
4276	42.750	-750.38098	29.33060	-633.90979	819.67426	30.86578	-639.37292	-658.49579	-6.85048	500.45105	783.93079	-7.79173	510.25104	36.09599	1338.12451	-916.44623	
4277	42.760	-750.37897	29.61475	-633.68774	819.64496	31.14423	-639.34991	-658.37341	-7.16645	500.52817	783.86914	-8.05990	510.27252	36.25303	1338.59045	-916.21777	
4278	42.770	-750.39600	29.94441	-633.54120	819.49329	31.46478	-639.35083	-658.26312	-7.37308	500.56299	783.83966	-8.23458	510.30072	36.21589	1339.06067	-915.44952	
4279	42.780	-750.45386	30.36796	-633.43030	819.48871	31.75245	-639.24823	-658.35333	-7.57402	500.55511	783.72467	-8.49205	510.35553	36.08973	1339.69971	-914.73688	
4280	42.790	-750.42627	30.74053	-633.43689	819.33020	32.08290	-639.09033	-658.46954	-7.74679	500.58676	783.67328	-8.90623	510.48303	36.24614	1340.34497	-913.91699	
4281	42.800	-750.52057	31.10949	-633.34332	819.40961	32.34743	-638.89679	-658.61914	-7.99463	500.75870	783.63440	-9.20215	510.52448	36.25930	1340.63342	-912.75116	
4282	42.810	-750.66132	31.38517	-633.35217	819.24219	32.71457	-638.75018	-658.74658	-8.30415	500.85590	783.59009	-9.37696	510.57230	36.05666	1341.07629	-912.02496	
4283	42.820	-750.88025	31.83843	-633.45630	818.96130	33.21470	-638.72229	-658.92389	-8.61028	500.99207	783.37103	-9.58501	510.63947	35.67554	1341.22961	-911.23895	
4284	42.830	-751.14008	32.18795	-633.41071	818.63733	33.66590	-638.62091	-659.17267	-8.88441	501.07962	783.11560	-9.81831	510.68362	35.49182	1342.10815	-909.81335	
4285	42.840	-751.44739	32.55910	-633.34637	818.51752	33.96223	-638.50000	-659.34900	-8.99439	501.14542	782.81415	-10.01564	510.79419	34.85921	1342.35986	-909.05719	
4286	42.850	-751.60455	32.71430	-633.32025	818.29639	34.11765	-638.56122	-659.65875	-9.19211	501.26126	782.56567	-10.19241	510.85345	34.73745	1342.66968	-908.38684	
4287	42.860	-751.91058	32.92680	-633.26172	818.10547	34.35059	-638.51453	-659.87213	-9.37732	501.33484	782.32764	-10.31483	510.96637	34.66674	1342.99561	-907.78436	
4288	42.870	-752.18506	33.06090	-633.06396	817.86859	34.42593	-638.49213	-660.08746	-9.55501	501.37683	781.92621	-10.54297	511.00122	34.37447	1343.17188	-907.45984	
4289	42.880	-752.53815	33.30474	-632.89917	817.52313	34.59988	-638.44263	-660.25708	-9.71516	501.41891	781.49182	-10.78815	511.02036	34.08041	1343.39893	-907.33026	
4290	42.890	-752.83313	33.52978	-632.83789	817.07770	34.85796	-638.34625	-660.65857	-9.86640	501.46661	781.20123	-10.92876	511.01175	33.85070	1343.69690	-907.32971	
4291	42.900	-753.17682	33.66864	-632.73358	816.70941	34.99876	-638.22913	-661.10846	-10.04511	501.49139	781.03448	-11.04611	511.05157	33.53663	1344.23718	-907.36029	
4292	42.910	-753.51245	33.98215	-632.73969	816.31964	35.29996	-638.18567	-661.47430	-10.22466	501.51718	780.74280	-11.22388	511.10547	33.30001	1344.63428	-907.12988	
4293	42.920	-753.93353	34.20548	-632.57538	815.94464	35.57080	-638.04272	-661.70227	-10.36780	501.59985	780.35822	-11.35298	511.31555	33.06256	1344.95203	-906.93469	
4294	42.930	-754.33160	34.45120	-632.55811	815.59576	35.72186	-638.06042	-662.05463	-10.47473	501.61563	779.99194	-11.49603	511.45615	32.41510	1345.42859	-906.40424	
4295	42.940	-754.61493	34.53916	-632.58008	815.26868	35.89027	-637.93793	-662.63794	-10.70619	501.60803	779.41351	-11.62199	511.54422	31.55467	1345.54822	-905.71832	
4296	42.950	-755.04248	34.66887	-632.46173	814.75897	36.10028	-637.96771	-663.01166	-10.82590	501.68533	778.99182	-11.85267	511.47784	31.39610	1345.79053	-904.83868	
4297	42.960	-755.60516	35.00998	-632.30170	814.47443	36.38432	-637.87000	-663.47803	-10.93393	501.83041	778.74811	-12.00169	511.49255	31.28391	1345.94250	-903.55316	
4298	42.970	-756.13605	35.10288	-632.16809	813.93036	36.58027	-637.89490	-663.85016	-11.03329	501.93597	778.40179	-12.12281	511.52133	31.01085	1346.05383	-902.22552	
4299	42.980	-756.56653	35.30108	-632.09442	813.37927	36.76662	-637.81476	-664.27808	-11.22774	501.91934	777.56104	-12.29342	511.74091	30.54628	1346.33630	-901.42981	
4300	42.990	-756.90552	35.51670	-632.19177	812.92651	36.91921	-637.81079	-664.67719	-11.39703	501.84949	777.01257	-12.34432	511.74777	29.75675	1346.59619	-901.06006	
4301	43.000	-757.24188	35.68272	-632.11060	812.50049	37.04757	-637.69788	-665.09521	-11.47531	501.85239	776.49982	-12.39732	511.81085	29.19033	1346.84253	-900.92468	
4302	43.010	-757.81860	35.94928	-632.11456	811.99634	37.20833	-637.63947	-665.58905	-11.58010	501.95212	776.27533	-12.57584	511.78647	28.63455	1347.10388	-901.22498	
4303	43.020	-758.44897	35.98557	-632.06427	811.38306	37.39175	-637.60895	-666.20752	-11.71150	501.90897	775.97833	-12.66733	511.71371	28.13387	1347.24280	-901.75574	
4304	43.030	-759.04181	36.22985	-632.05347	810.98944	37.56930	-637.57300	-666.68646	-11.81264	501.98132	775.53101	-12.69209	511.78445	27.88144	1347.59021	-901.86194	
4305	43.040	-759.66443	36.42651	-631.99677	810.48547	37.68584	-637.52911	-667.08905	-11.93603	502.01352	774.74872	-12.72160	511.88712	27.24211	1347.89490	-901.94293	
4306	43.050	-760.12885	36.50179	-631.76892	809.88043	37.73923	-637.52112	-667.62451	-12.14018	501.92929	773.67969	-12.91548	511.93143	26.64429	1348.12256	-901.75995	
4307	43.060	-760.46228	36.68033	-631.83508	809.35205	37.79654	-637.35742	-668.29779	-12.24327	501.90753	773.30798	-13.16196	511.93344	26.25471	1348.34351	-901.57477	
4308	43.070	-761.04230	36.88350	-631.80286	808.73578	37.93498	-637.32880	-668.78015	-12.38405	502.03494	772.93359	-13.21304	511.94601	25.76721	1348.46350	-901.15875	
4309	43.080	-761.65057	37.02768	-631.91492	808.12384	38.06787	-637.31476	-669.34021	-12.49644	502.20261	772.54144	-13.24339	511.91010	25.02070	1348.54321	-900.28821	
4310	43.090	-762.42432	37.26716	-631.93219	807.45752	38.17805	-637.36578	-670.48755	-12.01457	502.17096	772.04926	-13.38281	512.00494	24.59013	1348.67065	-899.40619	
4311	43.100	-763.00684	37.35455	-631.96906	806.91205	38.36274	-637.27094	-670.89929	-12.07751	502.27496	770.94800	-13.34491	511.77878	23.49080	1348.83643	-898.62817	
4312	43.110	-763.44684	37.18870	-631.44647	806.41370	38.29752	-637.08948	-671.61316	-12.15509	502.42337	770.62671	-13.44806	512.11725	23.11562	1348.94922	-898.03027	
4313	43.120	-763.96906	37.30581	-631.52954	805.74579	38.38811	-637.09430	-672.22467	-12.27452	502.36838	770.13794	-13.69512	511.97534	22.40951	1349.15125	-897.42108	
4314	43.130	-764.68225	37.38205	-631.59705	805.14825	38.57836	-637.09326	-672.86322	-12.23710	502.19217	769.21185	-13.70217	511.89081	21.94613	1349.17371	-897.32678	
4315	43.140	-765.59650	37.48193	-631.51715	804.41058	38.71087	-637.16357	-673.47327	-12.31887	502.25241	768.66516	-13.73772	511.84268	21.32734	1349.24988	-897.47321	
4316	43.150	-766.32166	37.73727	-631.69318	803.74017	38.76168	-636.95013	-674.37378	-12.46355	502.22781	767.70264	-13.92773	512.08612	20.34299	1349.51929	-897.91101	
4317	43.160	-766.94696	37.66858	-631.72314	803.03619	38.85295	-636.88043	-674.88434	-12.44939	502.16122	767.30414	-14.01956	512.03986	19.74087	1349.77344	-898.22998	
4318	43.170	-767.49713	37.69850	-631.61108	802.55035	38.98423	-636.86798	-675.70099	-12.38544	502.12756	766.65875	-14.03160	512.00964	19.26629	1349.76563	-898.59991	
4319	43.180	-768.05750	37.77497	-631.48474	801.87927	39.05812	-636.95544	-676.59015	-12.33639	502.21552	765.98560	-13.93302	512.06055	18.67626	1349.77002	-898.65808	
4320	43.190	-768.83051	37.78601	-631.33533	801.00110	39.08477	-636.96509	-677.17108	-12.23881	502.42526	765.18848	-13.86829	512.13293	18.01307	1349.82275	-898.77887	
4321	43.200	-769.78741	37.86473	-631.49597	800.28571	38.95224	-636.91394	-677.86353	-12.30340	502.45865	764.64545	-14.01697	512.07623	16.94432	1349.89111	-898.43427	
4322	43.210	-770.45337	37.98194	-631.56158	799.35626	39.00271	-637.00323	-678.52405	-12.38268	502.38773	763.68536	-14.12743	512.18567	16.31980	1349.90015	-897.91608	
4323	43.220	-771.12164	37.88985	-631.52277	798.81055	38.94954	-637.07343	-679.28003	-12.38775	502.36154	763.02582	-14.20605	512.17114	15.82789	1349.92590	-897.28790	
4324	43.230	-771.74255	37.93955	-631.42596	798.01221	38.97718	-636.91327	-680.14453	-12.51834	502.37872	762.36401	-14.08185	512.29999	14.54779	1350.02075	-896.71179	
4325	43.240	-772.79022	38.04595	-631.35950	797.29053	38.92226	-636.83228	-680.67273	-12.62914	502.30331	761.17468	-14.03138	512.50623	13.97776	1350.02954	-896.44739	
4326	43.250	-773.45782	37.95138	-631.53601	796.54633	39.11544	-636.72894	-681.43597	-12.67204	502.30109	760.70697	-14.03816	512.10840	13.66551	1350.08252	-896.24707	
4327	43.260	-774.37537	37.96582	-631.59766	795.87799	39.16071	-636.65118	-682.33612	-12.73107	502.40295	760.25757	-14.12723	512.39612	12.81001	1350.13135	-896.35156	
4328	43.270	-774.91400	38.02139	-631.54407	794.91760	39.12502	-636.78143	-682.91333	-12.77577	502.54218	759.22418	-14.25391	512.25323	11.19965	1350.15894	-897.17859	
4329	43.280	-775.85114	38.05161	-631.26605	794.31128	39.28279	-636.60974	-683.76593	-12.69745	502.59341	758.04059	-14.09654	512.37988	10.85513	1350.15857	-897.09064	
